<svg width="14" height="14" fill="none" xmlns="http://www.w3.org/2000/svg"><path fill-rule="evenodd" clip-rule="evenodd" d="M7.586.784a.5.5 0 01.506-.28 6.09 6.09 0 015.38 5.372.5.5 0 01-.85.41L7.683 1.354a.5.5 0 01-.097-.57zm2.22 1.275l2.108 2.106A5.092 5.092 0 009.805 2.06zM3.6 2.301a.742.742 0 00-.491-.18H1.24a.742.742 0 00-.738.806c.196 1.84.822 3.609 1.829 5.162l.002.004a11.614 11.614 0 003.573 3.573l.004.002a11.792 11.792 0 005.138 1.83.741.741 0 00.805-.743v-1.878a.742.742 0 00-.636-.754M3.6 2.301a.738.738 0 01.25.457zm-.499-1.18a1.742 1.742 0 011.74 1.499v.004c.075.56.211 1.108.408 1.636l-.468.175.468-.176a1.742 1.742 0 01-.392 1.838l-.002.002-.514.514a9.439 9.439 0 003.02 3.02l.516-.516a1.742 1.742 0 011.837-.392 7.476 7.476 0 001.636.407l.004.001a1.743 1.743 0 011.499 1.762v1.857M7.595 3.25a.5.5 0 01.538-.256 3.606 3.606 0 012.848 2.849.5.5 0 01-.844.449L7.683 3.838a.5.5 0 01-.088-.588z" fill="#fff"/></svg>